HIERARCHY
ROOT Hips
{
	OFFSET 173.408295 91.952423 -518.280273
	CHANNELS 6 Xposition Yposition Zposition Zrotation Yrotation Xrotation 
	JOINT LeftUpLeg
	{
		OFFSET 0.103459 1.857827 10.548504
		CHANNELS 3 Zrotation Yrotation Xrotation
		JOINT LeftLeg
		{
			OFFSET 43.500008 0.000000 0.000004
			CHANNELS 3 Zrotation Yrotation Xrotation
			JOINT LeftFoot
			{
				OFFSET 42.372192 0.000011 0.000000
				CHANNELS 3 Zrotation Yrotation Xrotation
				JOINT LeftToe
				{
					OFFSET 17.299973 -0.000013 -0.000010
					CHANNELS 3 Zrotation Yrotation Xrotation
					End Site
					{
						OFFSET 0.000000 0.000000 0.000000
					}
				}
			}
		}
	}
	JOINT RightUpLeg
	{
		OFFSET 0.103454 1.857830 -10.548500
		CHANNELS 3 Zrotation Yrotation Xrotation
		JOINT RightLeg
		{
			OFFSET 43.500038 -0.000038 0.000004
			CHANNELS 3 Zrotation Yrotation Xrotation
			JOINT RightFoot
			{
				OFFSET 42.372253 0.000019 0.000024
				CHANNELS 3 Zrotation Yrotation Xrotation
				JOINT RightToe
				{
					OFFSET 17.299988 -0.000007 0.000004
					CHANNELS 3 Zrotation Yrotation Xrotation
					End Site
					{
						OFFSET 0.000000 0.000000 0.000000
					}
				}
			}
		}
	}
	JOINT Spine
	{
		OFFSET 6.901963 -2.603744 0.000004
		CHANNELS 3 Zrotation Yrotation Xrotation
		JOINT Spine1
		{
			OFFSET 12.588104 0.000008 -0.000010
			CHANNELS 3 Zrotation Yrotation Xrotation
			JOINT Spine2
			{
				OFFSET 12.343202 -0.000005 0.000010
				CHANNELS 3 Zrotation Yrotation Xrotation
				JOINT Neck
				{
					OFFSET 25.832897 0.000000 0.000001
					CHANNELS 3 Zrotation Yrotation Xrotation
					JOINT Head
					{
						OFFSET 11.766611 -0.000006 -0.000000
						CHANNELS 3 Zrotation Yrotation Xrotation
						End Site
						{
							OFFSET 0.000000 0.000000 0.000000
						}
					}
				}
				JOINT LeftShoulder
				{
					OFFSET 19.745899 -1.480366 6.000108
					CHANNELS 3 Zrotation Yrotation Xrotation
					JOINT LeftArm
					{
						OFFSET 11.284111 -0.000018 -0.000015
						CHANNELS 3 Zrotation Yrotation Xrotation
						JOINT LeftForeArm
						{
							OFFSET 33.000050 -0.000005 0.000028
							CHANNELS 3 Zrotation Yrotation Xrotation
							JOINT LeftHand
							{
								OFFSET 25.200012 0.000000 0.000002
								CHANNELS 3 Zrotation Yrotation Xrotation
								End Site
								{
									OFFSET 0.000000 0.000000 0.000000
								}
							}
						}
					}
				}
				JOINT RightShoulder
				{
					OFFSET 19.746111 -1.480335 -6.000074
					CHANNELS 3 Zrotation Yrotation Xrotation
					JOINT RightArm
					{
						OFFSET 11.284151 0.000036 0.000001
						CHANNELS 3 Zrotation Yrotation Xrotation
						JOINT RightForeArm
						{
							OFFSET 33.000092 -0.000035 0.000022
							CHANNELS 3 Zrotation Yrotation Xrotation
							JOINT RightHand
							{
								OFFSET 25.199768 0.000178 0.000417
								CHANNELS 3 Zrotation Yrotation Xrotation
								End Site
								{
									OFFSET 0.000000 0.000000 0.000000
								}
							}
						}
					}
				}
			}
		}
	}
}
MOTION
Frames: 14
Frame Time: 0.033333
0.000000 0.000000 0.020000 nan nan nan nan nan nan nan nan nan nan nan nan nan nan nan nan nan nan nan nan nan nan nan nan nan nan nan nan nan nan nan nan nan nan nan nan nan nan nan nan nan nan nan nan nan nan nan nan nan nan nan nan nan nan nan nan nan nan nan nan nan nan nan nan nan nan 
0.000000 0.000000 0.040000 -3.055084 55.336441 2.003987 -0.112074 50.713352 4.894007 -5.658461 50.062801 0.677068 -1.677251 62.161938 -0.727240 -8.373625 34.316616 20.799355 -1.596882 27.586477 0.292899 -3.166728 70.442062 0.433680 -0.985246 11.866693 14.679392 7.104759 4.586609 -1.519819 -3.292942 72.859970 2.517769 -4.468972 7.739990 21.571747 3.109268 0.804230 4.935028 -1.691454 85.405228 3.482588 1.335016 79.003159 2.024022 -6.425776 80.511444 2.711871 -2.250319 87.233315 9.079268 7.819371 80.954399 0.863697 -11.850774 84.252632 5.541076 11.108232 77.847061 -13.393270 -20.279409 85.113930 17.955332 20.073378 73.524605 -25.701283 156.748947 89.040779 -146.782303 
0.000000 0.000000 0.060000 -6.359622 55.024235 4.152544 -3.476988 50.388077 6.931312 -8.785383 49.776402 2.476284 -4.995197 62.004761 1.769431 -12.664701 32.835236 19.709114 -3.188505 27.262432 1.096713 -6.453024 70.222397 3.014610 -12.419829 8.503565 19.134274 6.834158 5.338372 -2.117666 -6.549388 72.610085 5.115242 -17.674829 5.635186 26.361095 2.999200 0.954090 4.046829 -4.320932 85.095215 6.430606 -1.647379 78.535042 4.993107 -9.268364 80.395119 5.343386 -5.095339 86.742950 11.928167 4.669831 80.508446 3.916819 -14.352858 84.923195 7.873745 6.048181 77.811089 -11.011601 -21.227425 87.924904 20.754055 13.313013 73.056816 -23.827438 158.361267 84.293816 -145.111511 
0.000000 0.000000 0.080000 -9.915647 54.456081 6.382378 -7.070160 49.745918 9.071987 -12.231701 49.284054 4.345807 -8.513525 61.559769 4.304698 -16.322252 30.769522 19.353235 -5.754594 26.800346 1.897027 -9.848587 69.755600 5.538839 -20.239035 6.679765 20.543291 6.013144 6.086886 -2.087000 -9.921762 72.100677 7.639779 -25.992512 4.263833 27.561966 2.465350 1.281432 3.750143 -7.218390 84.535637 9.059374 -4.798625 77.852669 7.730443 -12.317733 79.983437 7.757652 -8.089253 86.177673 14.432185 1.476196 79.592148 6.781334 -17.360935 84.705956 10.064395 1.937681 76.441536 -8.106277 -23.561186 87.280289 22.845928 8.130531 70.869698 -20.744595 158.527420 84.868500 -143.888321 
0.000000 0.000000 0.100000 -13.668612 53.357044 8.565885 -10.844893 48.572464 11.324667 -15.908164 48.245102 6.210592 -12.109151 60.494656 6.687885 -20.506310 28.819265 20.226545 -9.096017 25.762671 3.121690 -13.302247 68.717918 7.900991 -25.116240 5.345028 20.165659 5.491300 7.019771 -1.327039 -13.385013 71.037079 10.054139 -30.655499 2.925179 27.012436 2.175261 1.806264 3.854690 -10.339828 83.418198 11.643115 -8.051607 76.639351 10.413820 -15.544563 79.025711 10.050528 -11.213577 85.042091 16.988081 -1.665384 77.888855 9.681005 -20.848030 83.520790 12.148756 -1.644243 73.598152 -5.219523 -27.010838 83.850037 24.724728 3.984652 66.841270 -17.626534 157.395233 89.232460 -142.508560 
0.000000 0.000000 0.120000 -17.501604 51.106110 10.649043 -14.657436 46.258171 13.576694 -19.704218 46.029228 8.238211 -15.908264 58.290653 8.702951 -24.884781 26.386868 21.707607 -15.278719 23.363220 4.855771 -16.879147 66.514130 10.053593 -27.506523 2.707368 17.554518 4.523713 8.933602 -0.226137 -16.974272 68.798248 12.318145 -32.123421 0.544688 24.714394 2.296586 2.729872 3.306915 -13.701176 81.162621 14.193568 -11.463589 74.263199 12.997477 -18.975122 76.944244 12.216962 -14.595417 82.960899 19.566404 -4.771894 74.528046 12.723844 -24.740631 80.735161 13.957835 -4.821768 68.146957 -1.696844 -30.747349 77.435287 25.750088 0.315357 59.150314 -13.473168 -24.197712 82.490074 38.112946 
0.000000 0.000000 0.140000 -20.760679 49.766983 12.430789 -17.910931 44.884876 15.563702 -22.937098 44.615189 10.067042 -19.169920 56.905922 10.374477 -28.159348 25.632429 24.148560 -23.420530 22.395741 7.876685 -20.049669 65.079483 11.875917 -28.179054 1.813530 17.082457 0.200336 11.181071 0.921504 -20.203838 67.368965 14.169508 -32.225597 0.055381 24.301828 -2.029493 3.986765 2.408763 -17.113802 79.765625 16.354193 -14.726058 72.939125 15.208079 -22.308781 75.463158 14.014418 -18.051449 81.865471 21.653334 -7.664215 72.261429 15.471296 -28.717304 78.136673 15.183351 -6.843779 63.396370 2.943125 -35.281860 70.973228 24.802702 -1.610362 52.267422 -6.321207 -29.246622 73.744812 38.182549 
0.000000 0.000000 0.160000 -23.246447 49.624451 13.843445 -20.498047 44.708496 17.040588 -25.462807 44.459782 11.524592 -21.552740 56.728115 11.789413 -29.924610 25.402897 25.566595 -31.021727 22.590887 10.455539 -22.461157 64.851433 13.193007 -27.768402 2.126827 16.909431 -7.332124 13.243672 1.995890 -22.721521 67.170532 15.451711 -32.029564 0.183696 23.900316 -10.725906 5.570711 1.934262 -20.138075 79.654640 17.490898 -17.523569 73.004044 16.635765 -25.047382 75.068756 14.987526 -21.229355 82.106422 22.666090 -10.332814 71.677040 17.410980 -31.800154 76.230934 15.335726 -8.578215 60.416012 7.513180 -37.763042 64.876442 20.824652 -3.719605 47.296909 2.969595 -34.737160 63.401157 34.826202 
0.000000 0.000000 0.180000 -25.400784 50.544144 15.047190 -22.665422 45.591167 17.959726 -27.937565 45.456730 12.919336 -23.602654 57.623352 12.934121 -30.474123 25.504858 25.562574 -37.259197 24.140188 13.881484 -24.579563 65.787498 14.215476 -27.002645 2.806309 16.442015 -16.970367 12.926897 3.535691 -24.936041 68.135475 16.368366 -31.334372 0.563050 23.431726 -21.888010 5.711869 3.359582 -23.100348 80.711647 17.966047 -20.138699 74.276802 17.476883 -27.634581 75.795410 15.520021 -24.220207 83.398941 23.006042 -12.986375 72.818207 18.642731 -34.345078 75.828735 15.040149 -10.689425 59.950546 11.613839 -38.472176 62.012020 16.005846 -7.281132 45.703438 12.940492 -39.089745 54.979477 28.189768 
0.000000 0.000000 0.200000 -27.518736 52.029839 16.127777 -24.738356 47.047764 18.665480 -30.517267 47.072475 14.266386 -25.646624 59.085907 13.927052 -30.476368 25.873970 24.884789 -41.963978 26.772232 17.459995 -26.657373 67.243164 15.101573 -26.326344 3.471757 15.733315 -27.820835 10.996455 5.385174 -27.070770 69.604065 17.190298 -30.529755 0.929370 22.869896 -33.982552 4.788545 6.502800 -25.865395 82.220161 18.309143 -22.570389 75.963791 18.156729 -30.125076 77.078125 15.932995 -26.926538 85.097633 23.248217 -15.432248 74.659981 19.623320 -36.690956 76.670815 14.628297 -12.853337 60.804726 15.094251 -39.517914 62.452133 12.001515 -11.228990 47.090084 21.460371 -43.183971 50.890060 20.112965 
0.000000 0.000000 0.220000 -29.720491 53.338711 17.125780 -26.804623 48.366264 19.338692 -33.049400 48.457546 15.588052 -27.942144 60.399700 14.822599 -30.349958 26.339067 24.289520 -44.483673 28.574800 19.659199 -28.924320 68.524567 15.833634 -26.015226 3.853953 15.155124 -37.892872 8.094687 8.529362 -29.359966 70.895195 17.895777 -30.045284 1.119661 22.476139 -44.796768 3.572746 11.559659 -28.511084 83.537430 18.544518 -25.006886 77.390152 18.664406 -32.646381 78.263695 16.276424 -29.553257 86.558151 23.397547 -17.816938 76.343597 20.405323 -39.050793 77.818039 14.287115 -15.155565 62.018032 17.893980 -40.793018 64.003441 9.014384 -14.934930 50.332569 27.851889 -45.964134 50.010876 12.415177 
0.000000 0.000000 0.240000 -32.072414 53.978550 18.013216 -29.023952 49.057163 19.949453 -35.561031 49.104713 16.794909 -30.510242 61.049923 15.622581 -30.804380 26.797201 24.222197 -45.693882 28.761108 20.277027 -31.356373 69.211014 16.466206 -26.310396 4.160325 15.017942 -45.621033 5.875634 12.176288 -31.784462 71.603004 18.492128 -30.006611 1.262206 22.418802 -52.110573 2.771966 17.198502 -31.073660 84.238785 18.703796 -27.475428 78.150139 19.020720 -35.184193 78.899773 16.612679 -32.208363 87.345139 23.409859 -20.256208 77.295059 20.878160 -41.451008 78.532036 14.147966 -17.694290 62.840054 19.728369 -42.276886 65.396362 6.939613 -18.548140 53.200958 32.103058 -48.044041 50.929367 6.875669 
0.000000 0.000000 0.260000 -34.541168 53.968937 18.759802 -31.440674 49.082783 20.399349 -38.130409 49.059864 17.779715 -33.199696 61.044525 16.373259 -31.730967 26.948107 24.461720 -47.059761 28.438452 20.109856 -33.859016 69.283485 17.029146 -26.693914 4.271644 15.024457 -51.199867 5.179405 15.600346 -34.246281 71.718262 19.001511 -29.971947 1.249760 22.488901 -55.968311 2.744491 22.050625 -33.571354 84.299408 18.791491 -29.945295 78.250633 19.257862 -37.703815 78.937088 16.935987 -34.818336 87.425827 23.375141 -22.754038 77.416771 21.136936 -43.863522 78.659821 14.123443 -20.464092 62.968338 20.982237 -43.940319 66.170784 5.459207 -22.432781 54.962635 34.449684 -49.928795 52.022018 2.865999 
0.000000 0.000000 0.280000 -37.176044 53.507900 19.385063 -33.969105 48.642906 20.865013 -40.831970 48.559502 18.554224 -36.040611 60.587708 16.916649 -33.123432 26.669773 25.211578 -48.815876 27.719788 20.226906 -36.530624 68.904930 17.411695 -27.255661 4.453069 15.001818 -53.288349 4.275269 16.458584 -36.870407 71.376045 19.399395 -30.070282 1.283185 22.589310 -56.533031 1.718151 23.770334 -36.200180 83.904137 18.895136 -32.539833 77.880493 19.437906 -40.390015 78.515648 17.245348 -37.311707 87.087128 23.549208 -25.331312 77.009811 21.240784 -46.533787 78.273537 14.374687 -23.356400 62.539211 21.642292 -46.232117 66.240952 4.808013 -26.051607 55.487793 35.342171 -52.063896 52.434341 0.690718 
